{"title":"Jason Derulo Ft. 2 Chainz - Talk Dirty [Explicit] 720p [Sbyky]","uid":9195796,"size":53780076,"categoryP":"video","categoryS":"music_videos","magnet":"?xt=urn:btih:e249d36cc715258e9ddba3f9aee9b570880dd806&amp;dn=Jason+Derulo+Ft.+2+Chainz+-+Talk+Dirty+%5BExplicit%5D+720p+%5BSbyky%5D&amp;tr=udp%3A%2F%2Ftracker.openbittorrent.com%3A80&amp;tr=udp%3A%2F%2Fopen.demonii.com%3A1337&amp;tr=udp%3A%2F%2Ftracker.coppersurfer.tk%3A6969&amp;tr=udp%3A%2F%2Fexodus.desync.com%3A6969","seeders":2,"leechers":0,"uploader":"Sbyky","files":1,"time":1384490126,"description":"[IMG]http://cdn.piczend.com/images/Mg1zl2Al/1384401416_talkdirtyexplicit.jpg[/IMG]\n\nGeneral\nComplete name                            : Jason Derulo Ft. 2 Chainz - Talk Dirty [Explicit] 720p [Sbyky].MP4\nFormat                                   : MPEG-4\nFormat profile                           : Base Media\nCodec ID                                 : isom\nFile size                                : 51.3 MiB\nDuration                                 : 3mn 7s\nOverall bit rate mode                    : Variable\nOverall bit rate                         : 2 298 Kbps\nEncoded date                             : UTC 2013-09-10 14:04:35\nTagged date                              : UTC 2013-09-10 14:04:35\n\nVideo\nID                                       : 1\nFormat                                   : AVC\nFormat/Info                              : Advanced Video Codec\nFormat profile                           : &lt;a class=&quot;__cf_email__&quot; href=&quot;/cdn-cgi/l/email-protection&quot; data-cfemail=&quot;024f636b6c424e312c33&quot;&gt;[email&amp;#160;protected]&lt;/a&gt;&lt;script cf-hash='f9e31' type=&quot;text/javascript&quot;&gt;\n/* &lt;![CDATA[ */!function(){try{var t=&quot;currentScript&quot;in document?document.currentScript:function(){for(var t=document.getElementsByTagName(&quot;script&quot;),e=t.length;e--;)if(t[e].getAttribute(&quot;cf-hash&quot;))return t[e]}();if(t&amp;&amp;t.previousSibling){var e,r,n,i,c=t.previousSibling,a=c.getAttribute(&quot;data-cfemail&quot;);if(a){for(e=&quot;&quot;,r=parseInt(a.substr(0,2),16),n=2;a.length-n;n+=2)i=parseInt(a.substr(n,2),16)^r,e+=String.fromCharCode(i);e=document.createTextNode(e),c.parentNode.replaceChild(e,c)}}}catch(u){}}();/* ]]&gt; */&lt;/script&gt;\nFormat settings, CABAC                   : Yes\nFormat settings, ReFrames                : 3 frames\nCodec ID                                 : avc1\nCodec ID/Info                            : Advanced Video Coding\nDuration                                 : 3mn 7s\nBit rate                                 : 2 043 Kbps\nWidth                                    : 1 280 pixels\nHeight                                   : 720 pixels\nDisplay aspect ratio                     : 16:9\nFrame rate mode                          : Constant\nFrame rate                               : 23.976 fps\nColor space                              : YUV\nChroma subsampling                       : 4:2:0\nBit depth                                : 8 bits\nScan type                                : Progressive\nBits/(Pixel*Frame)                       : 0.092\nStream size                              : 45.6 MiB (89%)\nEncoded date                             : UTC 2013-09-10 14:04:35\nTagged date                              : UTC 2013-09-10 14:04:35\n\nAudio\nID                                       : 2\nFormat                                   : AAC\nFormat/Info                              : Advanced Audio Codec\nFormat profile                           : LC\nCodec ID                                 : 40\nDuration                                 : 3mn 7s\nBit rate mode                            : Variable\nBit rate                                 : 254 Kbps\nChannel(s)                               : 2 channels\nChannel positions                        : Front: L R\nSampling rate                            : 44.1 KHz\nCompression mode                         : Lossy\nDelay relative to video                  : 42ms\nStream size                              : 5.66 MiB (11%)\nEncoded date                             : UTC 2013-09-10 14:04:15\nTagged date                              : UTC 2013-09-10 14:04:15\n\nShared By Sbyky\n[IMG]http://cdn.piczend.com/images/X3Ag13N3/1379453786_saythanks.gif[/IMG]\n[IMG]http://cdn.piczend.com/images/gGqhX2S8/1379453780_keepseeding.gif[/IMG]","torrent":{"xt":"urn:btih:e249d36cc715258e9ddba3f9aee9b570880dd806","amp;dn":"Jason+Derulo+Ft.+2+Chainz+-+Talk+Dirty+%5BExplicit%5D+720p+%5BSbyky%5D","amp;tr":["udp%3A%2F%2Ftracker.openbittorrent.com%3A80","udp%3A%2F%2Fopen.demonii.com%3A1337","udp%3A%2F%2Ftracker.coppersurfer.tk%3A6969","udp%3A%2F%2Fexodus.desync.com%3A6969"],"infoHash":"e249d36cc715258e9ddba3f9aee9b570880dd806","infoHashBuffer":{"type":"Buffer","data":[226,73,211,108,199,21,37,142,157,219,163,249,174,233,181,112,136,13,216,6]},"announce":[],"urlList":[]}}